<?xml version="1.0" encoding="utf-8"?>
<!-- Generator: Adobe Illustrator 16.0.0, SVG Export Plug-In . SVG Version: 6.00 Build 0)  -->
<!DOCTYPE svg PUBLIC "-//W3C//DTD SVG 1.1//EN" "http://www.w3.org/Graphics/SVG/1.1/DTD/svg11.dtd">
<svg version="1.1" id="Layer_2" xmlns="http://www.w3.org/2000/svg" xmlns:xlink="http://www.w3.org/1999/xlink" x="0px" y="0px"
	 width="799.937px" height="473.953px" viewBox="0 0 799.937 473.953" enable-background="new 0 0 799.937 473.953"
	 xml:space="preserve">
<rect x="109" y="234.5" fill="none" stroke="#010101" stroke-width="0.5" stroke-miterlimit="10" width="19.834" height="26.167"/>
<rect x="141.916" y="234.5" fill="none" stroke="#010101" stroke-width="0.5" stroke-miterlimit="10" width="19.834" height="26.167"/>
<rect x="174.791" y="234.5" fill="none" stroke="#010101" stroke-width="0.5" stroke-miterlimit="10" width="19.834" height="26.167"/>
<rect x="109" y="281" fill="none" stroke="#010101" stroke-width="0.5" stroke-miterlimit="10" width="19.834" height="26.167"/>
<rect x="141.916" y="281" fill="none" stroke="#010101" stroke-width="0.5" stroke-miterlimit="10" width="19.834" height="26.167"/>
<rect x="174.791" y="281" fill="none" stroke="#010101" stroke-width="0.5" stroke-miterlimit="10" width="19.834" height="26.167"/>
<rect x="109" y="327" fill="none" stroke="#010101" stroke-width="0.5" stroke-miterlimit="10" width="19.834" height="29.25"/>
<rect x="141.916" y="327" fill="none" stroke="#010101" stroke-width="0.5" stroke-miterlimit="10" width="19.834" height="29.25"/>
<rect x="174.791" y="327" fill="none" stroke="#010101" stroke-width="0.5" stroke-miterlimit="10" width="19.834" height="29.25"/>
<rect x="231.75" y="215" fill="none" stroke="#010101" stroke-width="0.5" stroke-miterlimit="10" width="24.5" height="45.667"/>
<rect x="267.5" y="215" fill="none" stroke="#010101" stroke-width="0.5" stroke-miterlimit="10" width="24.5" height="45.667"/>
<rect x="304.751" y="215" fill="none" stroke="#010101" stroke-width="0.5" stroke-miterlimit="10" width="24.5" height="45.667"/>
<rect x="342.002" y="215" fill="none" stroke="#010101" stroke-width="0.5" stroke-miterlimit="10" width="24.5" height="45.667"/>
<polyline fill="none" stroke="#010101" stroke-width="0.5" stroke-miterlimit="10" points="390.249,260.667 377.582,260.667 
	377.582,215 390.249,215 "/>
<rect x="234.417" y="309.25" fill="none" stroke="#010101" stroke-width="0.5" stroke-miterlimit="10" width="18.5" height="47"/>
<rect x="270.438" y="309.25" fill="none" stroke="#010101" stroke-width="0.5" stroke-miterlimit="10" width="18.5" height="47"/>
<rect x="307.751" y="309.25" fill="none" stroke="#010101" stroke-width="0.5" stroke-miterlimit="10" width="18.5" height="47"/>
<polyline fill="none" stroke="#010101" stroke-width="0.5" stroke-miterlimit="10" points="390.25,372 348,372 348,287 390.25,287 
	"/>
<rect x="107.834" y="373.001" fill="none" stroke="#010101" stroke-width="0.5" stroke-miterlimit="10" width="19.832" height="10.666"/>
<rect x="141.917" y="373.001" fill="none" stroke="#010101" stroke-width="0.5" stroke-miterlimit="10" width="19.833" height="10.666"/>
<rect x="174.792" y="373.001" fill="none" stroke="#010101" stroke-width="0.5" stroke-miterlimit="10" width="19.833" height="10.666"/>
<rect x="234.25" y="374.25" fill="none" stroke="#010101" stroke-width="0.5" stroke-miterlimit="10" width="18.5" height="20.25"/>
<rect x="270.418" y="374.25" fill="none" stroke="#010101" stroke-width="0.5" stroke-miterlimit="10" width="18.5" height="24.5"/>
<polyline fill="none" stroke="#010101" stroke-width="0.5" stroke-miterlimit="10" points="390.25,365.25 379,365.25 379,332.75 
	390.25,332.75 "/>
<polygon fill="none" stroke="#010101" stroke-width="0.5" stroke-miterlimit="10" points="325.75,376.375 325.75,374.25 
	307.25,374.25 307.25,401.25 321.25,401.25 325.75,401.25 "/>
</svg>
