<?xml version="1.0" encoding="utf-8"?>
<!-- Generator: Adobe Illustrator 16.0.0, SVG Export Plug-In . SVG Version: 6.00 Build 0)  -->
<!DOCTYPE svg PUBLIC "-//W3C//DTD SVG 1.1//EN" "http://www.w3.org/Graphics/SVG/1.1/DTD/svg11.dtd">
<svg version="1.1" id="Layer_2" xmlns="http://www.w3.org/2000/svg" xmlns:xlink="http://www.w3.org/1999/xlink" x="0px" y="0px"
	 width="799.937px" height="473.953px" viewBox="0 0 799.937 473.953" enable-background="new 0 0 799.937 473.953"
	 xml:space="preserve">
<polyline fill="none" stroke="#010101" stroke-width="0.5" stroke-miterlimit="10" points="216.667,263 216.667,394.5 88,394.5 
	88,372 "/>
<line fill="none" stroke="#010101" stroke-width="0.5" stroke-miterlimit="10" x1="216.667" y1="217.5" x2="216.667" y2="260.667"/>
<line fill="none" stroke="#010101" stroke-width="0.5" stroke-miterlimit="10" x1="216.667" y1="198.667" x2="216.667" y2="212.5"/>
<line fill="none" stroke="#010101" stroke-width="0.5" stroke-miterlimit="10" x1="88" y1="196.667" x2="216.667" y2="196.667"/>
<line fill="none" stroke="#010101" stroke-width="0.5" stroke-miterlimit="10" x1="88" y1="212.5" x2="88" y2="198.667"/>
<line fill="none" stroke="#010101" stroke-width="0.5" stroke-miterlimit="10" x1="88" y1="260.667" x2="88" y2="217.5"/>
<line fill="none" stroke="#010101" stroke-width="0.5" stroke-miterlimit="10" x1="88" y1="365.25" x2="88" y2="263"/>
<polyline fill="none" stroke="#010101" stroke-width="0.5" stroke-miterlimit="10" points="202,174.667 202,167 390.25,167 "/>
<line fill="none" stroke="#010101" stroke-width="0.5" stroke-miterlimit="10" x1="202" y1="196.667" x2="202" y2="181.833"/>
<polyline fill="none" stroke="#010101" stroke-width="0.5" stroke-miterlimit="10" points="353.666,371.875 353.666,365.25 
	390.249,365.25 "/>
<line fill="none" stroke="#010101" stroke-width="0.5" stroke-miterlimit="10" x1="353.666" y1="372" x2="338.5" y2="372"/>
<line fill="none" stroke="#010101" stroke-width="0.5" stroke-miterlimit="10" x1="327.75" y1="401.25" x2="390.25" y2="401.25"/>
<polyline fill="none" stroke="#010101" stroke-width="0.5" stroke-miterlimit="10" points="332,370.375 332,365.25 338.5,365.25 
	338.5,378.501 334.25,378.501 "/>
<polyline fill="none" stroke="#010101" stroke-width="0.5" stroke-miterlimit="10" points="327.75,376.375 327.75,370.375 
	334.25,370.375 334.25,383.626 331,383.626 "/>
<polyline fill="none" stroke="#010101" stroke-width="0.5" stroke-miterlimit="10" points="324.5,382 324.5,376.375 331,376.375 
	331,389.626 327.75,389.626 "/>
<rect x="321.25" y="382" fill="none" stroke="#010101" stroke-width="0.5" stroke-miterlimit="10" width="6.5" height="19.25"/>
<line fill="none" stroke="#010101" stroke-width="0.5" stroke-miterlimit="10" x1="109" y1="234.5" x2="109" y2="260.667"/>
<line fill="none" stroke="#010101" stroke-width="0.5" stroke-miterlimit="10" x1="194.625" y1="234.5" x2="194.625" y2="260.667"/>
<line fill="none" stroke="#010101" stroke-width="0.5" stroke-miterlimit="10" x1="194.625" y1="327" x2="194.625" y2="356.25"/>
<line fill="none" stroke="#010101" stroke-width="0.5" stroke-miterlimit="10" x1="194.625" y1="281" x2="194.625" y2="307.167"/>
<line fill="none" stroke="#010101" stroke-width="0.5" stroke-miterlimit="10" x1="109" y1="281" x2="109" y2="307.167"/>
<line fill="none" stroke="#010101" stroke-width="0.5" stroke-miterlimit="10" x1="109" y1="327" x2="109" y2="356.25"/>
<rect x="232" y="281" fill="none" stroke="#010101" stroke-width="0.5" stroke-miterlimit="10" width="24.25" height="84.25"/>
<rect x="267.5" y="281" fill="none" stroke="#010101" stroke-width="0.5" stroke-miterlimit="10" width="24.375" height="84.25"/>
<rect x="304.751" y="281" fill="none" stroke="#010101" stroke-width="0.5" stroke-miterlimit="10" width="24.5" height="84.25"/>
<rect x="228.666" y="281" fill="none" stroke="#010101" stroke-width="0.5" stroke-miterlimit="10" width="112.75" height="84.25"/>
<line fill="none" stroke="#010101" stroke-width="0.5" stroke-miterlimit="10" x1="341.416" y1="281" x2="390.25" y2="281"/>
<polyline fill="none" stroke="#010101" stroke-width="0.5" stroke-miterlimit="10" points="353.666,365.25 353.666,312 390.249,312 
	"/>
<rect x="79.25" y="212.5" fill="none" stroke="#010101" stroke-width="0.5" stroke-miterlimit="10" width="144.5" height="2.5"/>
<polyline fill="none" stroke="#010101" stroke-width="0.5" stroke-miterlimit="10" points="88,217.5 81.25,217.5 81.25,215 
	222.75,215 222.75,217.5 88,217.5 "/>
<polyline fill="none" stroke="#010101" stroke-width="0.5" stroke-miterlimit="10" points="390.249,177.333 190,177.333 
	190,174.667 390.249,174.667 "/>
<polyline fill="none" stroke="#010101" stroke-width="0.5" stroke-miterlimit="10" points="390.25,181.833 191.75,181.833 
	191.75,177.333 390.25,177.333 "/>
<line fill="none" stroke="#010101" stroke-width="0.5" stroke-miterlimit="10" x1="223.75" y1="215" x2="390.25" y2="215"/>
<line fill="none" stroke="#010101" stroke-width="0.5" stroke-miterlimit="10" x1="109" y1="234.5" x2="194.625" y2="234.5"/>
<line fill="none" stroke="#010101" stroke-width="0.5" stroke-miterlimit="10" x1="109" y1="281" x2="194.625" y2="281"/>
<line fill="none" stroke="#010101" stroke-width="0.5" stroke-miterlimit="10" x1="109" y1="327" x2="194.625" y2="327"/>
<rect x="85.5" y="365.25" fill="none" stroke="#010101" stroke-width="0.5" stroke-miterlimit="10" width="131.167" height="6.75"/>
<line fill="none" stroke="#010101" stroke-width="0.5" stroke-miterlimit="10" x1="216.667" y1="372" x2="327.75" y2="372"/>
<line fill="none" stroke="#010101" stroke-width="0.5" stroke-miterlimit="10" x1="216.667" y1="365.25" x2="332" y2="365.25"/>
<line fill="none" stroke="#010101" stroke-width="0.5" stroke-miterlimit="10" x1="109" y1="307.167" x2="194.625" y2="307.167"/>
<line fill="none" stroke="#010101" stroke-width="0.5" stroke-miterlimit="10" x1="109" y1="356.25" x2="194.625" y2="356.25"/>
<polyline fill="none" stroke="#010101" stroke-width="0.5" stroke-miterlimit="10" points="216.667,196.667 218.334,196.667 
	218.334,198.667 86.334,198.667 86.334,196.667 216.667,196.667 "/>
<polygon fill="none" stroke="#010101" stroke-width="0.5" stroke-miterlimit="10" points="88,263 218,263 218,260.667 
	216.666,260.667 85.875,260.667 85.875,263 "/>
<line fill="none" stroke="#010101" stroke-width="0.5" stroke-miterlimit="10" x1="218" y1="260.667" x2="390.25" y2="260.667"/>
<line fill="none" stroke="#010101" stroke-width="0.5" stroke-miterlimit="10" x1="218" y1="263" x2="390.25" y2="263"/>
<rect x="233.354" y="281" fill="none" stroke="#010101" stroke-width="0.5" stroke-miterlimit="10" width="21.375" height="20.5"/>
<rect x="269.063" y="281" fill="none" stroke="#010101" stroke-width="0.5" stroke-miterlimit="10" width="21.375" height="20.5"/>
<rect x="306.313" y="281" fill="none" stroke="#010101" stroke-width="0.5" stroke-miterlimit="10" width="21.375" height="20.5"/>
</svg>
