<?xml version="1.0" encoding="utf-8"?>
<!-- Generator: Adobe Illustrator 15.1.0, SVG Export Plug-In . SVG Version: 6.00 Build 0)  -->
<!DOCTYPE svg PUBLIC "-//W3C//DTD SVG 1.1 Tiny//EN" "http://www.w3.org/Graphics/SVG/1.1/DTD/svg11-tiny.dtd">
<svg version="1.1" baseProfile="tiny" id="Layer_3" xmlns="http://www.w3.org/2000/svg" xmlns:xlink="http://www.w3.org/1999/xlink"
	 x="0px" y="0px" width="799.938px" height="473.953px" viewBox="0 0 799.938 473.953" overflow="inherit" xml:space="preserve">
<line stroke="#FF004C" stroke-width="0.007" x1="190.413" y1="150.149" x2="203.695" y2="33.704"/>
<line stroke="#7F00FF" stroke-width="0.007" x1="229.04" y1="155.374" x2="244.15" y2="33.704"/>
<line stroke="#7F00FF" stroke-width="0.007" x1="229.04" y1="155.374" x2="284.604" y2="33.704"/>
<line stroke="#CC00FF" stroke-width="0.007" x1="349.914" y1="151.764" x2="325.059" y2="33.704"/>
<line stroke="#CC00FF" stroke-width="0.007" x1="349.914" y1="151.764" x2="365.513" y2="33.704"/>
<line stroke="#CC00FF" stroke-width="0.007" x1="349.914" y1="151.764" x2="405.969" y2="33.704"/>
<line stroke="#CC00FF" stroke-width="0.007" x1="349.914" y1="151.764" x2="446.423" y2="33.704"/>
<line stroke="#FF4C00" stroke-width="0.007" x1="478.269" y1="189.147" x2="486.877" y2="33.704"/>
<line stroke="#FF4C00" stroke-width="0.007" x1="478.269" y1="189.147" x2="527.332" y2="33.704"/>
<line stroke="#3200FF" stroke-width="0.007" x1="506.337" y1="195.428" x2="527.332" y2="33.704"/>
<line stroke="#3200FF" stroke-width="0.007" x1="506.337" y1="195.428" x2="567.786" y2="33.704"/>
<line stroke="#3200FF" stroke-width="0.007" x1="506.337" y1="195.428" x2="608.241" y2="33.704"/>
<line stroke="#FF004C" stroke-width="0.007" x1="190.413" y1="150.149" x2="203.695" y2="74.158"/>
<line stroke="#7F00FF" stroke-width="0.007" x1="229.04" y1="155.374" x2="244.15" y2="74.158"/>
<line stroke="#7F00FF" stroke-width="0.007" x1="229.04" y1="155.374" x2="284.604" y2="74.158"/>
<line stroke="#CC00FF" stroke-width="0.007" x1="349.914" y1="151.764" x2="325.059" y2="74.158"/>
<line stroke="#CC00FF" stroke-width="0.007" x1="349.914" y1="151.764" x2="365.513" y2="74.158"/>
<line stroke="#CC00FF" stroke-width="0.007" x1="349.914" y1="151.764" x2="405.969" y2="74.158"/>
<line stroke="#FF4C00" stroke-width="0.007" x1="478.269" y1="189.147" x2="446.423" y2="74.158"/>
<line stroke="#FF4C00" stroke-width="0.007" x1="478.269" y1="189.147" x2="486.877" y2="74.158"/>
<line stroke="#3200FF" stroke-width="0.007" x1="506.337" y1="195.428" x2="527.332" y2="74.158"/>
<line stroke="#3200FF" stroke-width="0.007" x1="506.337" y1="195.428" x2="567.786" y2="74.158"/>
<line stroke="#3200FF" stroke-width="0.007" x1="506.337" y1="195.428" x2="608.241" y2="74.158"/>
<line stroke="#FF004C" stroke-width="0.007" x1="190.413" y1="150.149" x2="203.695" y2="114.613"/>
<line stroke="#7F00FF" stroke-width="0.007" x1="229.04" y1="155.374" x2="244.15" y2="114.613"/>
<line stroke="#7F00FF" stroke-width="0.007" x1="229.04" y1="155.374" x2="284.604" y2="114.613"/>
<line stroke="#CC00FF" stroke-width="0.007" x1="349.914" y1="151.764" x2="325.059" y2="114.613"/>
<line stroke="#CC00FF" stroke-width="0.007" x1="349.914" y1="151.764" x2="365.513" y2="114.613"/>
<line stroke="#CC00FF" stroke-width="0.007" x1="349.914" y1="151.764" x2="405.969" y2="114.613"/>
<line stroke="#FF4C00" stroke-width="0.007" x1="478.269" y1="189.147" x2="446.423" y2="114.613"/>
<line stroke="#FF4C00" stroke-width="0.007" x1="478.269" y1="189.147" x2="486.877" y2="114.613"/>
<line stroke="#3200FF" stroke-width="0.007" x1="506.337" y1="195.428" x2="527.332" y2="114.613"/>
<line stroke="#3200FF" stroke-width="0.007" x1="506.337" y1="195.428" x2="567.786" y2="114.613"/>
<line stroke="#3200FF" stroke-width="0.007" x1="506.337" y1="195.428" x2="608.241" y2="114.613"/>
<line stroke="#FF004C" stroke-width="0.007" x1="190.413" y1="150.149" x2="203.695" y2="155.067"/>
<line stroke="#7F00FF" stroke-width="0.007" x1="229.04" y1="155.374" x2="244.15" y2="155.067"/>
<line stroke="#7F00FF" stroke-width="0.007" x1="229.04" y1="155.374" x2="284.604" y2="155.067"/>
<line stroke="#CC00FF" stroke-width="0.007" x1="349.914" y1="151.764" x2="325.059" y2="155.067"/>
<line stroke="#CC00FF" stroke-width="0.007" x1="349.914" y1="151.764" x2="365.513" y2="155.067"/>
<line stroke="#CC00FF" stroke-width="0.007" x1="349.914" y1="151.764" x2="405.969" y2="155.067"/>
<line stroke="#FF4C00" stroke-width="0.007" x1="478.269" y1="189.147" x2="446.423" y2="155.067"/>
<line stroke="#FF4C00" stroke-width="0.007" x1="478.269" y1="189.147" x2="486.877" y2="155.067"/>
<line stroke="#3200FF" stroke-width="0.007" x1="506.337" y1="195.428" x2="527.332" y2="155.067"/>
<line stroke="#3200FF" stroke-width="0.007" x1="506.337" y1="195.428" x2="567.786" y2="155.067"/>
<line stroke="#7FFF00" stroke-width="0.007" x1="537.435" y1="232.556" x2="608.241" y2="155.067"/>
<line stroke="#7F00FF" stroke-width="0.007" x1="229.04" y1="155.374" x2="203.695" y2="195.522"/>
<line stroke="#FF004C" stroke-width="0.007" x1="190.413" y1="150.149" x2="203.695" y2="195.522"/>
<line stroke="#7F00FF" stroke-width="0.007" x1="229.04" y1="155.374" x2="244.15" y2="195.522"/>
<line stroke="#00FF19" stroke-width="0.007" x1="315.246" y1="217.043" x2="284.604" y2="195.522"/>
<line stroke="#00FF19" stroke-width="0.007" x1="315.246" y1="217.043" x2="325.059" y2="195.522"/>
<line stroke="#CC00FF" stroke-width="0.007" x1="349.914" y1="151.764" x2="365.513" y2="195.522"/>
<line stroke="#FF0098" stroke-width="0.007" x1="429.885" y1="206.791" x2="405.969" y2="195.522"/>
<line stroke="#FF0098" stroke-width="0.007" x1="429.885" y1="206.791" x2="446.423" y2="195.522"/>
<line stroke="#FF4C00" stroke-width="0.007" x1="478.269" y1="189.147" x2="486.877" y2="195.522"/>
<line stroke="#3200FF" stroke-width="0.007" x1="506.337" y1="195.428" x2="527.332" y2="195.522"/>
<line stroke="#7FFF00" stroke-width="0.007" x1="537.435" y1="232.556" x2="567.786" y2="195.522"/>
<line stroke="#7FFF00" stroke-width="0.007" x1="537.435" y1="232.556" x2="608.241" y2="195.522"/>
<line stroke="#7F00FF" stroke-width="0.007" x1="229.04" y1="155.374" x2="203.695" y2="235.977"/>
<line stroke="#00FF19" stroke-width="0.007" x1="315.246" y1="217.043" x2="244.15" y2="235.977"/>
<line stroke="#00FF19" stroke-width="0.007" x1="315.246" y1="217.043" x2="284.604" y2="235.977"/>
<line stroke="#00FF19" stroke-width="0.007" x1="315.246" y1="217.043" x2="325.059" y2="235.977"/>
<line stroke="#FF9900" stroke-width="0.007" x1="356.953" y1="255.766" x2="365.513" y2="235.977"/>
<line stroke="#FF0098" stroke-width="0.007" x1="429.885" y1="206.791" x2="405.969" y2="235.977"/>
<line stroke="#00FFB2" stroke-width="0.007" x1="472.51" y1="228.323" x2="446.423" y2="235.977"/>
<line stroke="#00FFB2" stroke-width="0.007" x1="472.51" y1="228.323" x2="486.877" y2="235.977"/>
<line stroke="#7FFF00" stroke-width="0.007" x1="537.435" y1="232.556" x2="527.332" y2="235.977"/>
<line stroke="#7FFF00" stroke-width="0.007" x1="537.435" y1="232.556" x2="567.786" y2="235.977"/>
<line stroke="#7FFF00" stroke-width="0.007" x1="537.435" y1="232.556" x2="608.241" y2="235.977"/>
<line stroke="#FFE500" stroke-width="0.007" x1="248.964" y1="336.437" x2="203.695" y2="276.432"/>
<line stroke="#FFE500" stroke-width="0.007" x1="248.964" y1="336.437" x2="244.15" y2="276.432"/>
<line stroke="#00FF66" stroke-width="0.007" x1="309.26" y1="283.645" x2="284.604" y2="276.432"/>
<line stroke="#00FF66" stroke-width="0.007" x1="309.26" y1="283.645" x2="325.059" y2="276.432"/>
<line stroke="#FF0000" stroke-width="0.007" x1="362.437" y1="261.618" x2="365.513" y2="276.432"/>
<line stroke="#0019FF" stroke-width="0.007" x1="393.07" y1="298.279" x2="405.969" y2="276.432"/>
<line stroke="#33FF00" stroke-width="0.007" x1="455.856" y1="293.205" x2="446.423" y2="276.432"/>
<line stroke="#FF00E5" stroke-width="0.007" x1="511.714" y1="268.301" x2="486.877" y2="276.432"/>
<line stroke="#FF00E5" stroke-width="0.007" x1="511.714" y1="268.301" x2="527.332" y2="276.432"/>
<line stroke="#7FFF00" stroke-width="0.007" x1="537.435" y1="232.556" x2="567.786" y2="276.432"/>
<line stroke="#7FFF00" stroke-width="0.007" x1="537.435" y1="232.556" x2="608.241" y2="276.432"/>
<line stroke="#FFE500" stroke-width="0.007" x1="248.964" y1="336.437" x2="203.695" y2="316.886"/>
<line stroke="#FFE500" stroke-width="0.007" x1="248.964" y1="336.437" x2="244.15" y2="316.886"/>
<line stroke="#00FFFF" stroke-width="0.007" x1="313.725" y1="291.013" x2="284.604" y2="316.886"/>
<line stroke="#00FFFF" stroke-width="0.007" x1="313.725" y1="291.013" x2="325.059" y2="316.886"/>
<line stroke="#00B2FF" stroke-width="0.007" x1="349.76" y1="302.205" x2="365.513" y2="316.886"/>
<line stroke="#CBFF00" stroke-width="0.007" x1="391.855" y1="332.697" x2="405.969" y2="316.886"/>
<line stroke="#0066FF" stroke-width="0.007" x1="437.58" y1="315.301" x2="446.423" y2="316.886"/>
<line stroke="#33FF00" stroke-width="0.007" x1="455.856" y1="293.205" x2="486.877" y2="316.886"/>
<line stroke="#FF00E5" stroke-width="0.007" x1="511.714" y1="268.301" x2="527.332" y2="316.886"/>
<line stroke="#FF00E5" stroke-width="0.007" x1="511.714" y1="268.301" x2="567.786" y2="316.886"/>
<line stroke="#FF00E5" stroke-width="0.007" x1="511.714" y1="268.301" x2="608.241" y2="316.886"/>
<line stroke="#FFE500" stroke-width="0.007" x1="248.964" y1="336.437" x2="203.695" y2="357.34"/>
<line stroke="#FFE500" stroke-width="0.007" x1="248.964" y1="336.437" x2="244.15" y2="357.34"/>
<line stroke="#FFE500" stroke-width="0.007" x1="248.964" y1="336.437" x2="284.604" y2="357.34"/>
<line stroke="#00B2FF" stroke-width="0.007" x1="349.76" y1="302.205" x2="325.059" y2="357.34"/>
<line stroke="#CBFF00" stroke-width="0.007" x1="391.855" y1="332.697" x2="365.513" y2="357.34"/>
<line stroke="#CBFF00" stroke-width="0.007" x1="391.855" y1="332.697" x2="405.969" y2="357.34"/>
<line stroke="#0066FF" stroke-width="0.007" x1="437.58" y1="315.301" x2="446.423" y2="357.34"/>
<line stroke="#0066FF" stroke-width="0.007" x1="437.58" y1="315.301" x2="486.877" y2="357.34"/>
<line stroke="#FF00E5" stroke-width="0.007" x1="511.714" y1="268.301" x2="527.332" y2="357.34"/>
<line stroke="#FF00E5" stroke-width="0.007" x1="511.714" y1="268.301" x2="567.786" y2="357.34"/>
<line stroke="#FF00E5" stroke-width="0.007" x1="511.714" y1="268.301" x2="608.241" y2="357.34"/>
<line stroke="#FFE500" stroke-width="0.007" x1="248.964" y1="336.437" x2="203.695" y2="397.795"/>
<line stroke="#FFE500" stroke-width="0.007" x1="248.964" y1="336.437" x2="244.15" y2="397.795"/>
<line stroke="#FFE500" stroke-width="0.007" x1="248.964" y1="336.437" x2="284.604" y2="397.795"/>
<line stroke="#CBFF00" stroke-width="0.007" x1="391.855" y1="332.697" x2="325.059" y2="397.795"/>
<line stroke="#CBFF00" stroke-width="0.007" x1="391.855" y1="332.697" x2="365.513" y2="397.795"/>
<line stroke="#CBFF00" stroke-width="0.007" x1="391.855" y1="332.697" x2="405.969" y2="397.795"/>
<line stroke="#0066FF" stroke-width="0.007" x1="437.58" y1="315.301" x2="446.423" y2="397.795"/>
<line stroke="#0066FF" stroke-width="0.007" x1="437.58" y1="315.301" x2="486.877" y2="397.795"/>
<line stroke="#0066FF" stroke-width="0.007" x1="437.58" y1="315.301" x2="527.332" y2="397.795"/>
<line stroke="#FF00E5" stroke-width="0.007" x1="511.714" y1="268.301" x2="567.786" y2="397.795"/>
<line stroke="#FF00E5" stroke-width="0.007" x1="511.714" y1="268.301" x2="608.241" y2="397.795"/>
<line stroke="#FFE500" stroke-width="0.007" x1="248.964" y1="336.437" x2="203.695" y2="438.249"/>
<line stroke="#FFE500" stroke-width="0.007" x1="248.964" y1="336.437" x2="244.15" y2="438.249"/>
<line stroke="#FFE500" stroke-width="0.007" x1="248.964" y1="336.437" x2="284.604" y2="438.249"/>
<line stroke="#CBFF00" stroke-width="0.007" x1="391.855" y1="332.697" x2="325.059" y2="438.249"/>
<line stroke="#CBFF00" stroke-width="0.007" x1="391.855" y1="332.697" x2="365.513" y2="438.249"/>
<line stroke="#CBFF00" stroke-width="0.007" x1="391.855" y1="332.697" x2="405.969" y2="438.249"/>
<line stroke="#CBFF00" stroke-width="0.007" x1="391.855" y1="332.697" x2="446.423" y2="438.249"/>
<line stroke="#0066FF" stroke-width="0.007" x1="437.58" y1="315.301" x2="486.877" y2="438.249"/>
<line stroke="#0066FF" stroke-width="0.007" x1="437.58" y1="315.301" x2="527.332" y2="438.249"/>
<line stroke="#0066FF" stroke-width="0.007" x1="437.58" y1="315.301" x2="567.786" y2="438.249"/>
<line stroke="#FF00E5" stroke-width="0.007" x1="511.714" y1="268.301" x2="567.786" y2="438.249"/>
<line stroke="#FF00E5" stroke-width="0.007" x1="511.714" y1="268.301" x2="608.241" y2="438.249"/>
<rect x="280.969" y="110.977" display="none" fill="#FFFFFF" stroke="#000000" stroke-width="0.1" width="250" height="250"/>
</svg>
