
<svg xmlns="http://www.w3.org/2000/svg" version="1.1" xmlns:xlink="http://www.w3.org/1999/xlink" preserveAspectRatio="none" x="0px" y="0px" width="550px" height="400px" viewBox="0 0 550 400">

<path id="Layer0_0_1_STROKES" stroke="#000000" stroke-width="1" stroke-linejoin="round" stroke-linecap="round" fill="none" d="
M 191 178.55
L 191.7 186.5 217.1 183.65 216.2 171.4
M 238.2 187.05
L 237.65 181.3 217.1 183.65 217.75 192.8
M 236.25 165.75
L 237.65 181.3 258.7 178.9 257.45 159.75
M 322.65 141.35
L 322.7 144.55 386.6 136.45
M 302.45 168.85
L 302.1 147.15 322.7 144.55 322.95 163.1
M 272.65 177.3
L 258.7 178.9 258.85 181.2
M 279.9 153.4
L 280.9 174.95
M 163.9 208
L 161.85 189.9 143.2 192.05
M 161.5 186.85
L 161.85 189.9 191.7 186.5 192.95 199.8"/>

<g transform="matrix( 1, 0, 0, 1, 0,0) ">
<use xlink:href="#Layer0_0_1_STROKES"/>
</g>
</svg>
