
<svg xmlns="http://www.w3.org/2000/svg" version="1.1" xmlns:xlink="http://www.w3.org/1999/xlink" preserveAspectRatio="none" x="0px" y="0px" width="550px" height="400px" viewBox="0 0 550 400">
<path id="Layer0_0_1_STROKES" stroke="#000000" stroke-width="1" stroke-linejoin="round" stroke-linecap="round" fill="none" d="
M 276 65.5
L 276.35 73.05 295.8 72.8
M 272.15 73.1
L 276.35 73.05 277.1 89.75 287.45 89.3
M 263.4 90.4
L 277.1 89.75 277.9 108.2
M 300.2 32.35
L 300.7 63.05
M 238.15 186.75
L 237.65 181.3 217.1 183.65 219.95 222.75
M 255.2 153.1
L 235.35 155.6 237.65 181.3 241.15 180.9
M 216.2 183.75
L 217.1 183.65 217 182.2
M 230.1 156.3
L 235.35 155.6 234.6 147.4
M 254 109
L 254.95 123.15 270.85 122.15
M 246.6 123.65
L 254.95 123.15 256.75 150
M 189.35 236.9
L 196.2 235.45 195.25 225.2
M 171.2 272.75
L 171.85 278.55
M 198.85 264.55
L 198.4 259.7 175.8 263.7
M 201.6 259.1
L 198.4 259.7 196.2 235.45 215.6 231.35"/>
<g transform="matrix( 1, 0, 0, 1, 0,0) ">
<use xlink:href="#Layer0_0_1_STROKES"/>
</g>
</svg>
