
<svg xmlns="http://www.w3.org/2000/svg" version="1.1" xmlns:xlink="http://www.w3.org/1999/xlink" preserveAspectRatio="none" x="0px" y="0px" width="550px" height="400px" viewBox="0 0 550 400">

<path id="Layer0_0_1_STROKES" stroke="#000000" stroke-width="1" stroke-linejoin="round" stroke-linecap="round" fill="none" d="
M 360.2 85.95
L 364.8 85.75
M 235.95 162.3
L 237.65 181.3 246.85 180.25
M 238.05 185.65
L 237.65 181.3 217.1 183.65 218.15 197.9
M 216.4 174.3
L 217.1 183.65 197.65 185.85
M 304.65 120.1
L 322.35 119 322.2 109.3
M 349.25 117.35
L 322.35 119 322.55 133.75
M 301.65 121.95
L 302.05 146.3
M 256.75 149.55
L 256.95 152.9 279.75 150 279.15 135.8
M 256.95 152.9
L 258.35 173.2
M 300.35 147.4
L 279.75 150 280.2 159.75
M 249.8 153.8
L 256.95 152.9
M 163.75 206.65
L 166.35 229.75
M 191.95 189.3
L 194.1 212.65"/>


<g transform="matrix( 1, 0, 0, 1, 0,0) ">
<use xlink:href="#Layer0_0_1_STROKES"/>
</g>
</svg>
