
<svg xmlns="http://www.w3.org/2000/svg" version="1.1" xmlns:xlink="http://www.w3.org/1999/xlink" preserveAspectRatio="none" x="0px" y="0px" width="550px" height="400px" viewBox="0 0 550 400">
<path id="Layer0_0_1_STROKES" stroke="#000000" stroke-width="1" stroke-linejoin="round" stroke-linecap="round" fill="none" d="
M 178 37.05
L 181.4 74.2 196.05 74
M 173.8 74.3
L 181.4 74.2 183.25 94 203.2 93.1
M 181.2 94.1
L 183.25 94 183.9 101.25
M 212.2 117.15
L 212.85 125.75 215.35 125.6
M 212.85 125.75
L 215.2 158.15 227 156.65
M 236.3 181.45
L 217.1 183.65 217.65 191.4
M 215.2 158.15
L 217.1 183.65 214.85 183.9
M 205.65 159.4
L 215.2 158.15
M 193.5 126.9
L 212.85 125.75
M 261.4 248.5
L 244.05 251.6 245.3 265.2
M 263.9 255.15
L 265.2 274.25 270.55 272.95
M 250 277.8
L 265.2 274.25 266.8 297.85
M 231.35 228.05
L 241.7 225.85 238.1 186.35
M 241.7 225.85
L 252.1 223.65
M 240.45 252.25
L 244.05 251.6 241.7 225.85"/>

<g transform="matrix( 1, 0, 0, 1, 0,0) ">
<use xlink:href="#Layer0_0_1_STROKES"/>
</g>
</svg>
