
<svg xmlns="http://www.w3.org/2000/svg" version="1.1" xmlns:xlink="http://www.w3.org/1999/xlink" preserveAspectRatio="none" x="0px" y="0px" width="550px" height="400px" viewBox="0 0 550 400">

<path id="Layer0_0_1_STROKES" stroke="#000000" stroke-width="1" stroke-linejoin="round" stroke-linecap="round" fill="none" d="
M 190.55 173.85
L 191.7 186.5 217.1 183.65 216.1 170.35
M 191.7 186.5
L 192.45 194.75
M 238.3 188.5
L 237.65 181.3 217.1 183.65 217.65 191.3
M 236.4 167.55
L 237.65 181.3 258.7 178.9 257.75 164.65
M 280.3 161.55
L 280.95 176.35 302.55 173.9 302.3 158.55
M 281.2 182.6
L 280.95 176.35 258.7 178.9 259.15 185.65
M 322.85 155.75
L 323.05 171.55 390.75 163.85
M 323.15 176.9
L 323.05 171.55 302.55 173.9 302.65 179.7
M 160.5 177.95
L 161.85 189.9 191.7 186.5
M 162.85 198.8
L 161.85 189.9 114.6 195.3"/>

<g transform="matrix( 1, 0, 0, 1, 0,0) ">
<use xlink:href="#Layer0_0_1_STROKES"/>
</g>
</svg>
