
<svg xmlns="http://www.w3.org/2000/svg" version="1.1" xmlns:xlink="http://www.w3.org/1999/xlink" preserveAspectRatio="none" x="0px" y="0px" width="550px" height="400px" viewBox="0 0 550 400">
<path id="Layer0_0_1_STROKES" stroke="#000000" stroke-width="1" stroke-linejoin="round" stroke-linecap="round" fill="none" d="
M 205.35 159.4
L 189.4 161.45 190.6 174.3
M 179.35 162.7
L 189.4 161.45 187.55 141.1
M 227.7 182.45
L 217.1 183.65 218.5 203.1
M 216.1 170.5
L 217.1 183.65 201.35 185.4
M 122.6 74.85
L 123.3 74.85
M 115.65 97.1
L 143.6 95.8
M 152.2 104.65
L 155 129.3 174.9 128.05
M 156.05 138.75
L 155 129.3 147.35 129.75
M 287.35 243.9
L 283.95 244.5 285.05 269.55 304.05 265.1 303.95 261.05
M 283.75 240.2
L 283.95 244.5 263.4 248.15 263.5 249.45
M 261.3 217.1
L 261.6 221.65 265.05 220.95
M 263.4 248.15
L 262.4 248.35
M 285.05 269.55
L 285.15 271.75
M 307.2 264.35
L 304.05 265.1 304.35 285.15
M 283.4 269.95
L 285.05 269.55
M 261.6 221.65
L 263.4 248.15
M 240.8 226.05
L 241.7 225.85 238.8 193.9
M 261.6 221.65
L 241.7 225.85 241.85 227.15"/>

<g transform="matrix( 1, 0, 0, 1, 0,0) ">
<use xlink:href="#Layer0_0_1_STROKES"/>
</g>
</svg>
