
<svg xmlns="http://www.w3.org/2000/svg" version="1.1" xmlns:xlink="http://www.w3.org/1999/xlink" preserveAspectRatio="none" x="0px" y="0px" width="550px" height="400px" viewBox="0 0 550 400">
<path id="Layer0_0_1_STROKES" stroke="#000000" stroke-width="1" stroke-linejoin="round" stroke-linecap="round" fill="none" d="
M 190.15 169.3
L 191.7 186.5 217.1 183.65 216.05 169.3
M 191.7 186.5
L 192.05 190.3
M 238.5 190.3
L 237.65 181.3 217.1 183.65 217.6 190.3
M 236.6 169.3
L 237.65 181.3 258.7 178.9 258.05 169.3
M 281.55 190.3
L 280.95 176.35 258.7 178.9 259.5 190.3
M 280.6 169.3
L 280.95 176.35 302.55 173.9 302.45 169.3
M 323.35 190.3
L 323.05 171.55 302.55 173.9 302.8 190.3
M 323.05 169.3
L 323.05 171.55 342.85 169.3
M 161.9 190.3
L 161.85 189.9 158.35 190.3
M 159.5 169.3
L 161.85 189.9 191.7 186.5
M 112.25 171.2
L 127.25 169.3"/>

<g transform="matrix( 1, 0, 0, 1, 0,0) ">
<use xlink:href="#Layer0_0_1_STROKES"/>
</g>
</svg>
