
<svg xmlns="http://www.w3.org/2000/svg" version="1.1" xmlns:xlink="http://www.w3.org/1999/xlink" preserveAspectRatio="none" x="0px" y="0px" width="550px" height="400px" viewBox="0 0 550 400">

<path id="Layer0_0_1_STROKES" stroke="#000000" stroke-width="1" stroke-linejoin="round" stroke-linecap="round" fill="none" d="
M 207 46.05
L 209.05 73.85 213.9 73.8
M 209.05 73.85
L 210.4 92.8 218.05 92.45
M 192.4 74.05
L 209.05 73.85
M 196.7 93.4
L 210.4 92.8 212.85 125.75 225.25 124.95
M 204.05 126.3
L 212.85 125.75 215.2 158.15 232.15 156
M 226.85 229
L 241.7 225.85 237.65 181.3 217.1 183.65 217.25 185.7
M 215.2 158.15
L 217.1 183.65 216.8 183.65
M 237.6 180.35
L 237.65 181.3
M 211.25 158.65
L 215.2 158.15
M 253.05 250
L 244.05 251.6 246.5 278.65 258.8 275.75
M 241.7 225.85
L 247.45 224.65
M 238.35 280.55
L 246.5 278.65 248.5 300.55
M 232.35 253.65
L 244.05 251.6 241.7 225.85"/>


<g transform="matrix( 1, 0, 0, 1, 0,0) ">
<use xlink:href="#Layer0_0_1_STROKES"/>
</g>
</svg>
