
<svg xmlns="http://www.w3.org/2000/svg" version="1.1" xmlns:xlink="http://www.w3.org/1999/xlink" preserveAspectRatio="none" x="0px" y="0px" width="550px" height="400px" viewBox="0 0 550 400">
<path id="Layer0_0_1_STROKES" stroke="#000000" stroke-width="1" stroke-linejoin="round" stroke-linecap="round" fill="none" d="
M 226 53.05
L 227.9 73.65 230.35 73.6
M 227.9 73.65
L 229.55 91.9 231.8 91.8
M 210.8 92.75
L 229.55 91.9 232.5 124.5 234.4 124.4
M 209.3 73.85
L 227.9 73.65
M 213.4 125.7
L 232.5 124.5 235.35 155.6 236.85 155.4
M 216 158.05
L 235.35 155.6 237.65 181.3 238.9 181.15
M 221.75 230.1
L 241.7 225.85 237.65 181.3 218.05 183.55
M 244.55 251.5
L 244.05 251.6 246.5 278.65 247.35 287.15
Q 247.7 291.4 248.05 295.7
M 241.7 225.85
L 242.45 225.7
M 226 283.45
L 246.5 278.65
M 223.75 255.2
L 244.05 251.6 241.7 225.85"/>


<g transform="matrix( 1, 0, 0, 1, 0,0) ">
<use xlink:href="#Layer0_0_1_STROKES"/>
</g>
</svg>
