
<svg xmlns="http://www.w3.org/2000/svg" version="1.1" xmlns:xlink="http://www.w3.org/1999/xlink" preserveAspectRatio="none" x="0px" y="0px" width="550px" height="400px" viewBox="0 0 550 400">

<path id="Layer0_0_1_STROKES" stroke="#000000" stroke-width="1" stroke-linejoin="round" stroke-linecap="round" fill="none" d="
M 226 53.05
L 227.9 73.65 245.35 73.45
M 224.25 73.7
L 227.9 73.65 229.55 91.9 244.4 91.25
M 223.25 92.2
L 229.55 91.9 232.5 124.5 242.65 123.9
M 221.5 125.2
L 232.5 124.5 235.35 155.6 241 154.9
M 219.8 157.6
L 235.35 155.6 237.65 181.3 239.6 181.05
M 238.9 194.8
L 237.65 181.3 218.4 183.5
M 217.85 194.05
L 220.5 230.35 237.2 226.8
M 215.85 231.3
L 220.5 230.35 222.35 255.45 235.8 253.05
M 222.35 255.45
L 224.45 283.85 234.25 281.5
M 222.35 255.45
L 214.5 256.85
M 212.95 286.55
L 224.45 283.85 225.5 298.15"/>


<g transform="matrix( 1, 0, 0, 1, 0,0) ">
<use xlink:href="#Layer0_0_1_STROKES"/>
</g>
</svg>
