
<svg xmlns="http://www.w3.org/2000/svg" version="1.1" xmlns:xlink="http://www.w3.org/1999/xlink" preserveAspectRatio="none" x="0px" y="0px" width="550px" height="400px" viewBox="0 0 550 400">

<path id="Layer0_0_1_STROKES" stroke="#000000" stroke-width="1" stroke-linejoin="round" stroke-linecap="round" fill="none" d="
M 185.55 119.5
L 186.3 127.35 191.1 127.05
M 166.25 128.6
L 186.3 127.35 189.25 159.9
M 215.35 160
L 217.1 183.65 231.5 182
M 218.25 199.3
L 217.1 183.65 207.5 184.7
M 190.3 161.3
L 214.1 158.3
M 148.15 68.6
L 148.8 74.55 152.5 74.5
M 126.7 74.8
L 148.8 74.55 151.15 95.45 167.35 94.75
M 142.2 95.85
L 151.15 95.45 152.85 110.4
M 278.25 245.55
L 263.4 248.15 264.35 262.05
M 263.4 248.15
L 255.2 249.6
M 284.35 253.85
L 285.05 269.55 294.3 267.4
M 304.3 281
L 304.3 282.15
M 286 291.5
L 285.05 269.55 272.1 272.6
M 261.7 223.05
L 263.4 248.15
M 238.3 226.6
L 241.7 225.85 238.6 191.65
M 260.8 221.85
L 241.7 225.85 242.25 232"/>


<g transform="matrix( 1, 0, 0, 1, 0,0) ">
<use xlink:href="#Layer0_0_1_STROKES"/>
</g>
</svg>
