
<svg xmlns="http://www.w3.org/2000/svg" version="1.1" xmlns:xlink="http://www.w3.org/1999/xlink" preserveAspectRatio="none" x="0px" y="0px" width="550px" height="400px" viewBox="0 0 550 400">
<path id="Layer0_0_1_STROKES" stroke="#000000" stroke-width="1" stroke-linejoin="round" stroke-linecap="round" fill="none" d="
M 324.35 262.45
L 324.4 266.75
M 193.7 160.9
L 189.4 161.45 191.65 185.85
M 189.05 157.25
L 189.4 161.45 164.35 164.6
M 222.2 183.05
L 217.1 183.65 218.8 206.95
M 216.75 178.8
L 217.1 183.65 192.4 186.45
M 104.45 97.6
L 111.8 97.25
M 121.5 131.35
L 153.15 129.4
M 155.2 131
L 158.45 160.05
M 298.05 242
L 283.95 244.5 284.55 258.05
M 261.05 213.25
L 261.6 221.65 269.65 219.95
M 261.6 221.65
L 262.95 241.25
M 322.25 260.8
L 304.05 265.1 304.15 273.35
M 296 267
L 304.05 265.1 303.75 246.45
M 270.25 246.95
L 283.95 244.5 283.3 230.55
M 242.8 225.65
L 261.6 221.65
M 239 196.15
L 241.6 224.7"/>

<g transform="matrix( 1, 0, 0, 1, 0,0) ">
<use xlink:href="#Layer0_0_1_STROKES"/>
</g>
</svg>
