
<svg xmlns="http://www.w3.org/2000/svg" version="1.1" xmlns:xlink="http://www.w3.org/1999/xlink" preserveAspectRatio="none" x="0px" y="0px" width="550px" height="400px" viewBox="0 0 550 400">
<path id="Layer0_0_1_STROKES" stroke="#000000" stroke-width="1" stroke-linejoin="round" stroke-linecap="round" fill="none" d="
M 300.65 58.35
L 300.85 72.75 316.3 72.6
M 300.85 72.75
L 301.1 88.65 305.3 88.45
M 290.6 72.9
L 300.85 72.75
M 301.1 88.65
L 301.2 94.4
M 321.3 43.7
L 321.6 64.85
M 279 89.65
L 301.1 88.65
M 238.1 185.9
L 237.65 181.3 217.1 183.65 219.25 213.15
M 257.3 158
L 256.95 152.9 235.35 155.6 237.65 181.3 241.55 180.85
M 216.8 179.8
L 217.1 183.65 213.95 184
M 233.35 155.85
L 235.35 155.6 235.15 153.25
M 255.95 123.1
L 278.5 121.7 277.2 92.3
M 282.55 121.45
L 278.5 121.7 278.75 126.95
M 255.05 124.45
L 256.95 152.9 261.2 152.35
M 194.1 212.7
L 196.2 235.45 205.15 233.55
M 197.1 245.3
L 196.2 235.45 175.35 239.85
M 185.55 261.95
L 170.3 264.65 171.75 277.7
M 168.6 249.65
L 170.3 264.65 156.55 267.1"/>

<g transform="matrix( 1, 0, 0, 1, 0,0) ">
<use xlink:href="#Layer0_0_1_STROKES"/>
</g>
</svg>
