
<svg xmlns="http://www.w3.org/2000/svg" version="1.1" xmlns:xlink="http://www.w3.org/1999/xlink" preserveAspectRatio="none" x="0px" y="0px" width="550px" height="400px" viewBox="0 0 550 400">
<path id="Layer0_0_1_STROKES" stroke="#000000" stroke-width="1" stroke-linejoin="round" stroke-linecap="round" fill="none" d="
M 255.2 73.3
L 276.35 73.05 275 43.05
M 277.45 73.05
L 276.35 73.05 276.45 75.9
M 249.15 91.05
L 252.75 90.85 252.2 82.15
M 252.75 90.85
L 271.65 90
M 238.25 187.95
L 237.65 181.3 217.6 183.6
M 249.9 153.8
L 235.35 155.6 237.65 181.3 240.65 180.95
M 226.8 156.7
L 235.35 155.6 233.6 136.65
M 252.75 90.85
L 254.95 123.15 260.5 122.8
M 255.85 136.4
L 254.95 123.15 237.85 124.2
M 217.2 184.85
L 220.5 230.35 224.1 229.6
M 220.5 230.35
L 221.1 238.35
M 196.65 290.35
L 201.1 289.3 198.4 259.7 191.2 260.95
M 203.95 288.65
L 201.1 289.3 201.35 291.95
M 196.95 244.1
L 198.4 259.7 214.8 256.8
M 200.2 234.6
L 220.5 230.35"/>
<g transform="matrix( 1, 0, 0, 1, 0,0) ">
<use xlink:href="#Layer0_0_1_STROKES"/>
</g>
</svg>
