
<svg xmlns="http://www.w3.org/2000/svg" version="1.1" xmlns:xlink="http://www.w3.org/1999/xlink" preserveAspectRatio="none" x="0px" y="0px" width="550px" height="400px" viewBox="0 0 550 400">

<path id="Layer0_0_1_STROKES" stroke="#000000" stroke-width="1" stroke-linejoin="round" stroke-linecap="round" fill="none" d="
M 342.75 72.25
L 354.3 72.15
M 324.05 87.6
L 359.05 86.05
M 235.75 160.1
L 237.65 181.3 243.85 180.6
M 238.05 185.35
L 237.65 181.3 217.1 183.65 218.4 201.5
M 216.5 175.9
L 217.1 183.65 205.5 184.95
M 301.4 106.2
L 301.65 120.25 318.6 119.2
M 301.65 120.25
L 301.85 132.95
M 279.8 151.05
L 279.75 150 256.95 152.9 258.05 168.95
M 278.65 124.9
L 279.75 150 281.35 149.8
M 256.3 143.25
L 256.95 152.9 242.3 154.75
M 282.9 121.4
L 301.65 120.25
M 321.95 89.35
L 322.3 116.2
M 170.35 240.9
L 167.65 241.5 167.85 243
M 165.05 218.2
L 167.65 241.5 139.2 247.5
M 192.55 195.6
L 194.85 220.8"/>


<g transform="matrix( 1, 0, 0, 1, 0,0) ">
<use xlink:href="#Layer0_0_1_STROKES"/>
</g>
</svg>
