
<svg xmlns="http://www.w3.org/2000/svg" version="1.1" xmlns:xlink="http://www.w3.org/1999/xlink" preserveAspectRatio="none" x="0px" y="0px" width="550px" height="400px" viewBox="0 0 550 400">

<path id="Layer0_0_1_STROKES" stroke="#000000" stroke-width="1" stroke-linejoin="round" stroke-linecap="round" fill="none" d="
M 342.3 117.75
L 380.2 115.45
M 191.45 183.6
L 191.7 186.5 217.1 183.65 216.3 172.75
M 193.45 205.6
L 191.7 186.5 182.35 187.6
M 238.1 186.1
L 237.65 181.3 217.1 183.65 217.9 194.95
M 236.1 164.1
L 237.65 181.3 253.2 179.5
M 301.9 135.4
L 302.1 147.15 322.7 144.55 322.45 126.45
M 263.9 152
L 279.75 150 279.55 145.15
M 302.25 158.1
L 302.1 147.15 279.75 150 280.55 167.6
M 257.1 154.95
L 258.6 177.15
M 337.65 142.65
L 322.7 144.55 322.75 149.15
M 162.55 196.2
L 165 218"/>


<g transform="matrix( 1, 0, 0, 1, 0,0) ">
<use xlink:href="#Layer0_0_1_STROKES"/>
</g>
</svg>
