
<svg xmlns="http://www.w3.org/2000/svg" version="1.1" xmlns:xlink="http://www.w3.org/1999/xlink" preserveAspectRatio="none" x="0px" y="0px" width="550px" height="400px" viewBox="0 0 550 400">
<path id="Layer0_0_1_STROKES" stroke="#000000" stroke-width="1" stroke-linejoin="round" stroke-linecap="round" fill="none" d="
M 301.05 85.95
L 301.1 88.65 321.9 87.7 321.7 72.5 313.35 72.6
M 321.6 63.7
L 321.7 72.5 342.2 72.25
M 298.45 88.8
L 301.1 88.65 301.55 116.4
M 328.25 87.45
L 321.9 87.7 322 94.2
M 235.5 157.25
L 237.65 181.3 242.4 180.75
M 238.05 185.45
L 237.65 181.3 217.1 183.65 218.75 206.4
M 216.65 177.7
L 217.1 183.65 210.55 184.4
M 267.55 122.35
L 278.5 121.7 278.05 111
M 297.8 120.5
L 278.5 121.7 279.35 140.55
M 255.75 135.2
L 256.95 152.9 269.5 151.3
M 257.7 164.1
L 256.95 152.9 237.2 155.4
M 193.25 203.2
L 195.8 231.35
M 166.6 232.1
L 167.65 241.5 191.05 236.55
M 169.75 259.7
L 167.65 241.5 155.65 244
M 164.2 265.75
L 157.55 266.9"/>


<g transform="matrix( 1, 0, 0, 1, 0,0) ">
<use xlink:href="#Layer0_0_1_STROKES"/>
</g>
</svg>
