
<svg xmlns="http://www.w3.org/2000/svg" version="1.1" xmlns:xlink="http://www.w3.org/1999/xlink" preserveAspectRatio="none" x="0px" y="0px" width="550px" height="400px" viewBox="0 0 550 400">
<path id="Layer0_0_1_STROKES" stroke="#000000" stroke-width="1" stroke-linejoin="round" stroke-linecap="round" fill="none" d="
M 182.45 85.6
L 183.25 94 186.9 93.85
M 163.65 94.9
L 183.25 94 186.3 127.35 204.35 126.25
M 187.35 138.8
L 186.3 127.35 181.35 127.65
M 234.25 181.7
L 217.1 183.65 217.95 195.6
M 221.15 157.4
L 215.2 158.15 217.1 183.65 211.85 184.25
M 214.2 144.5
L 215.2 158.15 198.9 160.25
M 146.25 51.75
L 147.8 65.45
M 269.55 247.05
L 263.4 248.15 265.2 274.25 282.05 270.25
M 260.9 275.25
L 265.2 274.25 265.9 284.45
M 263.4 248.15
L 247.8 250.9
M 285.35 276.4
L 286.05 291.75
M 262.45 233.9
L 263.4 248.15
M 235.05 227.25
L 241.7 225.85 238.4 189.35
M 256.4 222.75
L 241.7 225.85 243.25 242.45
M 152.65 74.5
L 176.35 74.25"/>

<g transform="matrix( 1, 0, 0, 1, 0,0) ">
<use xlink:href="#Layer0_0_1_STROKES"/>
</g>
</svg>
