
<svg xmlns="http://www.w3.org/2000/svg" version="1.1" xmlns:xlink="http://www.w3.org/1999/xlink" preserveAspectRatio="none" x="0px" y="0px" width="550px" height="400px" viewBox="0 0 550 400">

<path id="Layer0_0_1_STROKES" stroke="#000000" stroke-width="1" stroke-linejoin="round" stroke-linecap="round" fill="none" d="
M 250 50.05
L 251.6 73.35 261.2 73.25
M 251.6 73.35
L 252.75 90.85 257.85 90.65
M 229.8 124.7
L 232.5 124.5 231.65 115.2
M 245.45 154.35
L 235.35 155.6 237.65 181.3 240.25 181
M 223.5 157.1
L 235.35 155.6 232.5 124.5 251.45 123.35
M 238.45 190.1
L 237.65 181.3 218.4 183.5
M 239.8 73.5
L 251.6 73.35
M 254.05 110.05
L 252.75 90.85 236.25 91.6
M 217.45 188.4
L 220.5 230.35 231.05 228.1
M 208.8 232.8
L 220.5 230.35 222.35 255.45 225.85 254.8
M 220 284.9
L 201.1 289.3 201.45 293.25
M 197.6 290.15
L 201.1 289.3 200.05 277.7
M 223.3 268.05
L 222.35 255.45 203.75 258.75"/>


<g transform="matrix( 1, 0, 0, 1, 0,0) ">
<use xlink:href="#Layer0_0_1_STROKES"/>
</g>
</svg>
