<?xml version="1.0" encoding="utf-8"?>
<!-- Generator: Adobe Illustrator 15.1.0, SVG Export Plug-In . SVG Version: 6.00 Build 0)  -->
<!DOCTYPE svg PUBLIC "-//W3C//DTD SVG 1.1 Tiny//EN" "http://www.w3.org/Graphics/SVG/1.1/DTD/svg11-tiny.dtd">
<svg version="1.1" baseProfile="tiny" id="Layer_2" xmlns="http://www.w3.org/2000/svg" xmlns:xlink="http://www.w3.org/1999/xlink"
	 x="0px" y="0px" width="799.938px" height="473.953px" viewBox="0 0 799.938 473.953" overflow="inherit" xml:space="preserve">
<path fill="none" stroke="#000000" stroke-miterlimit="10" d="M109,260.667V234.5h19.834v26.167H109z M141.916,234.5v26.167h19.834
	V234.5H141.916z M174.791,234.5v26.167h19.834V234.5H174.791z M128.834,307.167V281H109v26.167H128.834z M141.916,281v26.167h19.834
	V281H141.916z M174.791,281v26.167h19.834V281H174.791z M128.834,356.25V327H109v29.25H128.834z M141.916,327v29.25h19.834V327
	H141.916z M174.791,327v29.25h19.834V327H174.791z M231.75,215v45.667h24.5V215H231.75z M267.5,215v45.667H292V215H267.5z
	 M304.752,215v45.667h24.5V215H304.752z M342.003,215v45.667h24.5V215H342.003z M390.249,215h-12.667v45.667h12.667 M252.917,356.25
	v-47h-18.5v47H252.917z M288.938,356.25v-47h-18.5v47H288.938z M326.252,356.25v-47h-18.5v47H326.252z M390.251,287h-42.25v85h42.25
	 M107.834,373.001v10.666h19.832v-10.666H107.834z M141.917,383.667h19.833v-10.666h-19.833V383.667z M174.792,383.667h19.833
	v-10.666h-19.833V383.667z M234.25,394.5h18.5v-20.25h-18.5V394.5z M270.418,398.75h18.5v-24.5h-18.5V398.75z M390.251,332.75
	h-11.25v32.5h11.25 M307.251,401.25h14h4.5v-24.875v-2.125h-18.5V401.25z"/>
</svg>
