<?xml version="1.0" encoding="utf-8"?>
<!-- Generator: Adobe Illustrator 15.1.0, SVG Export Plug-In . SVG Version: 6.00 Build 0)  -->
<!DOCTYPE svg PUBLIC "-//W3C//DTD SVG 1.1 Tiny//EN" "http://www.w3.org/Graphics/SVG/1.1/DTD/svg11-tiny.dtd">
<svg version="1.1" baseProfile="tiny" id="Layer_1" xmlns="http://www.w3.org/2000/svg" xmlns:xlink="http://www.w3.org/1999/xlink"
	 x="0px" y="0px" width="500px" height="500px" viewBox="0 0 500 500" overflow="inherit" xml:space="preserve">
	<line fill="none" stroke="#FF004C" stroke-width="0.07" x1="33.445" y1="163.172" x2="46.727" y2="46.728"/>
	<line fill="none" stroke="#7F00FF" stroke-width="0.07" x1="72.072" y1="168.397" x2="87.182" y2="46.728"/>
	<line fill="none" stroke="#7F00FF" stroke-width="0.07" x1="72.072" y1="168.397" x2="127.636" y2="46.728"/>
	<line fill="none" stroke="#CC00FF" stroke-width="0.07" x1="192.946" y1="164.788" x2="168.091" y2="46.728"/>
	<line fill="none" stroke="#CC00FF" stroke-width="0.07" x1="192.946" y1="164.788" x2="208.545" y2="46.728"/>
	<line fill="none" stroke="#CC00FF" stroke-width="0.07" x1="192.946" y1="164.788" x2="249" y2="46.728"/>
	<line fill="none" stroke="#CC00FF" stroke-width="0.07" x1="192.946" y1="164.788" x2="289.454" y2="46.728"/>
	<line fill="none" stroke="#FF4C00" stroke-width="0.07" x1="321.301" y1="202.171" x2="329.908" y2="46.728"/>
	<line fill="none" stroke="#FF4C00" stroke-width="0.07" x1="321.301" y1="202.171" x2="370.364" y2="46.728"/>
	<line fill="none" stroke="#3200FF" stroke-width="0.07" x1="349.368" y1="208.451" x2="370.364" y2="46.728"/>
	<line fill="none" stroke="#3200FF" stroke-width="0.07" x1="349.368" y1="208.451" x2="410.818" y2="46.728"/>
	<line fill="none" stroke="#3200FF" stroke-width="0.07" x1="349.368" y1="208.451" x2="451.273" y2="46.728"/>
	<line fill="none" stroke="#FF004C" stroke-width="0.07" x1="33.445" y1="163.172" x2="46.727" y2="87.182"/>
	<line fill="none" stroke="#7F00FF" stroke-width="0.07" x1="72.072" y1="168.397" x2="87.182" y2="87.182"/>
	<line fill="none" stroke="#7F00FF" stroke-width="0.07" x1="72.072" y1="168.397" x2="127.636" y2="87.182"/>
	<line fill="none" stroke="#CC00FF" stroke-width="0.07" x1="192.946" y1="164.788" x2="168.091" y2="87.182"/>
	<line fill="none" stroke="#CC00FF" stroke-width="0.07" x1="192.946" y1="164.788" x2="208.545" y2="87.182"/>
	<line fill="none" stroke="#CC00FF" stroke-width="0.07" x1="192.946" y1="164.788" x2="249" y2="87.182"/>
	<line fill="none" stroke="#FF4C00" stroke-width="0.07" x1="321.301" y1="202.171" x2="289.454" y2="87.182"/>
	<line fill="none" stroke="#FF4C00" stroke-width="0.07" x1="321.301" y1="202.171" x2="329.908" y2="87.182"/>
	<line fill="none" stroke="#3200FF" stroke-width="0.07" x1="349.368" y1="208.451" x2="370.364" y2="87.182"/>
	<line fill="none" stroke="#3200FF" stroke-width="0.07" x1="349.368" y1="208.451" x2="410.818" y2="87.182"/>
	<line fill="none" stroke="#3200FF" stroke-width="0.07" x1="349.368" y1="208.451" x2="451.273" y2="87.182"/>
	<line fill="none" stroke="#FF004C" stroke-width="0.07" x1="33.445" y1="163.172" x2="46.727" y2="127.636"/>
	<line fill="none" stroke="#7F00FF" stroke-width="0.07" x1="72.072" y1="168.397" x2="87.182" y2="127.636"/>
	<line fill="none" stroke="#7F00FF" stroke-width="0.07" x1="72.072" y1="168.397" x2="127.636" y2="127.636"/>
	<line fill="none" stroke="#CC00FF" stroke-width="0.07" x1="192.946" y1="164.788" x2="168.091" y2="127.636"/>
	<line fill="none" stroke="#CC00FF" stroke-width="0.07" x1="192.946" y1="164.788" x2="208.545" y2="127.636"/>
	<line fill="none" stroke="#CC00FF" stroke-width="0.07" x1="192.946" y1="164.788" x2="249" y2="127.636"/>
	<line fill="none" stroke="#FF4C00" stroke-width="0.07" x1="321.301" y1="202.171" x2="289.454" y2="127.636"/>
	<line fill="none" stroke="#FF4C00" stroke-width="0.07" x1="321.301" y1="202.171" x2="329.908" y2="127.636"/>
	<line fill="none" stroke="#3200FF" stroke-width="0.07" x1="349.368" y1="208.451" x2="370.364" y2="127.636"/>
	<line fill="none" stroke="#3200FF" stroke-width="0.07" x1="349.368" y1="208.451" x2="410.818" y2="127.636"/>
	<line fill="none" stroke="#3200FF" stroke-width="0.07" x1="349.368" y1="208.451" x2="451.273" y2="127.636"/>
	<line fill="none" stroke="#FF004C" stroke-width="0.07" x1="33.445" y1="163.172" x2="46.727" y2="168.091"/>
	<line fill="none" stroke="#7F00FF" stroke-width="0.07" x1="72.072" y1="168.397" x2="87.182" y2="168.091"/>
	<line fill="none" stroke="#7F00FF" stroke-width="0.07" x1="72.072" y1="168.397" x2="127.636" y2="168.091"/>
	<line fill="none" stroke="#CC00FF" stroke-width="0.07" x1="192.946" y1="164.788" x2="168.091" y2="168.091"/>
	<line fill="none" stroke="#CC00FF" stroke-width="0.07" x1="192.946" y1="164.788" x2="208.545" y2="168.091"/>
	<line fill="none" stroke="#CC00FF" stroke-width="0.07" x1="192.946" y1="164.788" x2="249" y2="168.091"/>
	<line fill="none" stroke="#FF4C00" stroke-width="0.07" x1="321.301" y1="202.171" x2="289.454" y2="168.091"/>
	<line fill="none" stroke="#FF4C00" stroke-width="0.07" x1="321.301" y1="202.171" x2="329.908" y2="168.091"/>
	<line fill="none" stroke="#3200FF" stroke-width="0.07" x1="349.368" y1="208.451" x2="370.364" y2="168.091"/>
	<line fill="none" stroke="#3200FF" stroke-width="0.07" x1="349.368" y1="208.451" x2="410.818" y2="168.091"/>
	<line fill="none" stroke="#7FFF00" stroke-width="0.07" x1="380.467" y1="245.579" x2="451.273" y2="168.091"/>
	<line fill="none" stroke="#7F00FF" stroke-width="0.07" x1="72.072" y1="168.397" x2="46.727" y2="208.545"/>
	<line fill="none" stroke="#FF004C" stroke-width="0.07" x1="33.445" y1="163.172" x2="46.727" y2="208.545"/>
	<line fill="none" stroke="#7F00FF" stroke-width="0.07" x1="72.072" y1="168.397" x2="87.182" y2="208.545"/>
	<line fill="none" stroke="#00FF19" stroke-width="0.07" x1="158.278" y1="230.066" x2="127.636" y2="208.545"/>
	<line fill="none" stroke="#00FF19" stroke-width="0.07" x1="158.278" y1="230.066" x2="168.091" y2="208.545"/>
	<line fill="none" stroke="#CC00FF" stroke-width="0.07" x1="192.946" y1="164.788" x2="208.545" y2="208.545"/>
	<line fill="none" stroke="#FF0098" stroke-width="0.07" x1="272.916" y1="219.814" x2="249" y2="208.545"/>
	<line fill="none" stroke="#FF0098" stroke-width="0.07" x1="272.916" y1="219.814" x2="289.454" y2="208.545"/>
	<line fill="none" stroke="#FF4C00" stroke-width="0.07" x1="321.301" y1="202.171" x2="329.908" y2="208.545"/>
	<line fill="none" stroke="#3200FF" stroke-width="0.07" x1="349.368" y1="208.451" x2="370.364" y2="208.545"/>
	<line fill="none" stroke="#7FFF00" stroke-width="0.07" x1="380.467" y1="245.579" x2="410.818" y2="208.545"/>
	<line fill="none" stroke="#7FFF00" stroke-width="0.07" x1="380.467" y1="245.579" x2="451.273" y2="208.545"/>
	<line fill="none" stroke="#7F00FF" stroke-width="0.07" x1="72.072" y1="168.397" x2="46.727" y2="249"/>
	<line fill="none" stroke="#00FF19" stroke-width="0.07" x1="158.278" y1="230.066" x2="87.182" y2="249"/>
	<line fill="none" stroke="#00FF19" stroke-width="0.07" x1="158.278" y1="230.066" x2="127.636" y2="249"/>
	<line fill="none" stroke="#00FF19" stroke-width="0.07" x1="158.278" y1="230.066" x2="168.091" y2="249"/>
	<line fill="none" stroke="#FF9900" stroke-width="0.07" x1="199.985" y1="268.789" x2="208.545" y2="249"/>
	<line fill="none" stroke="#FF0098" stroke-width="0.07" x1="272.916" y1="219.814" x2="249" y2="249"/>
	<line fill="none" stroke="#00FFB2" stroke-width="0.07" x1="315.542" y1="241.346" x2="289.454" y2="249"/>
	<line fill="none" stroke="#00FFB2" stroke-width="0.07" x1="315.542" y1="241.346" x2="329.908" y2="249"/>
	<line fill="none" stroke="#7FFF00" stroke-width="0.07" x1="380.467" y1="245.579" x2="370.364" y2="249"/>
	<line fill="none" stroke="#7FFF00" stroke-width="0.07" x1="380.467" y1="245.579" x2="410.818" y2="249"/>
	<line fill="none" stroke="#7FFF00" stroke-width="0.07" x1="380.467" y1="245.579" x2="451.273" y2="249"/>
	<line fill="none" stroke="#FFE500" stroke-width="0.07" x1="91.995" y1="349.46" x2="46.727" y2="289.455"/>
	<line fill="none" stroke="#FFE500" stroke-width="0.07" x1="91.995" y1="349.46" x2="87.182" y2="289.455"/>
	<line fill="none" stroke="#00FF66" stroke-width="0.07" x1="152.291" y1="296.668" x2="127.636" y2="289.455"/>
	<line fill="none" stroke="#00FF66" stroke-width="0.07" x1="152.291" y1="296.668" x2="168.091" y2="289.455"/>
	<line fill="none" stroke="#FF0000" stroke-width="0.07" x1="205.469" y1="274.642" x2="208.545" y2="289.455"/>
	<line fill="none" stroke="#0019FF" stroke-width="0.07" x1="236.102" y1="311.303" x2="249" y2="289.455"/>
	<line fill="none" stroke="#33FF00" stroke-width="0.07" x1="298.888" y1="306.229" x2="289.454" y2="289.455"/>
	<line fill="none" stroke="#FF00E5" stroke-width="0.07" x1="354.745" y1="281.324" x2="329.908" y2="289.455"/>
	<line fill="none" stroke="#FF00E5" stroke-width="0.07" x1="354.745" y1="281.324" x2="370.364" y2="289.455"/>
	<line fill="none" stroke="#7FFF00" stroke-width="0.07" x1="380.467" y1="245.579" x2="410.818" y2="289.455"/>
	<line fill="none" stroke="#7FFF00" stroke-width="0.07" x1="380.467" y1="245.579" x2="451.273" y2="289.455"/>
	<line fill="none" stroke="#FFE500" stroke-width="0.07" x1="91.995" y1="349.46" x2="46.727" y2="329.909"/>
	<line fill="none" stroke="#FFE500" stroke-width="0.07" x1="91.995" y1="349.46" x2="87.182" y2="329.909"/>
	<line fill="none" stroke="#00FFFF" stroke-width="0.07" x1="156.757" y1="304.036" x2="127.636" y2="329.909"/>
	<line fill="none" stroke="#00FFFF" stroke-width="0.07" x1="156.757" y1="304.036" x2="168.091" y2="329.909"/>
	<line fill="none" stroke="#00B2FF" stroke-width="0.07" x1="192.792" y1="315.229" x2="208.545" y2="329.909"/>
	<line fill="none" stroke="#CBFF00" stroke-width="0.07" x1="234.887" y1="345.721" x2="249" y2="329.909"/>
	<line fill="none" stroke="#0066FF" stroke-width="0.07" x1="280.612" y1="328.324" x2="289.454" y2="329.909"/>
	<line fill="none" stroke="#33FF00" stroke-width="0.07" x1="298.888" y1="306.229" x2="329.908" y2="329.909"/>
	<line fill="none" stroke="#FF00E5" stroke-width="0.07" x1="354.745" y1="281.324" x2="370.364" y2="329.909"/>
	<line fill="none" stroke="#FF00E5" stroke-width="0.07" x1="354.745" y1="281.324" x2="410.818" y2="329.909"/>
	<line fill="none" stroke="#FF00E5" stroke-width="0.07" x1="354.745" y1="281.324" x2="451.273" y2="329.909"/>
	<line fill="none" stroke="#FFE500" stroke-width="0.07" x1="91.995" y1="349.46" x2="46.727" y2="370.363"/>
	<line fill="none" stroke="#FFE500" stroke-width="0.07" x1="91.995" y1="349.46" x2="87.182" y2="370.363"/>
	<line fill="none" stroke="#FFE500" stroke-width="0.07" x1="91.995" y1="349.46" x2="127.636" y2="370.363"/>
	<line fill="none" stroke="#00B2FF" stroke-width="0.07" x1="192.792" y1="315.229" x2="168.091" y2="370.363"/>
	<line fill="none" stroke="#CBFF00" stroke-width="0.07" x1="234.887" y1="345.721" x2="208.545" y2="370.363"/>
	<line fill="none" stroke="#CBFF00" stroke-width="0.07" x1="234.887" y1="345.721" x2="249" y2="370.363"/>
	<line fill="none" stroke="#0066FF" stroke-width="0.07" x1="280.612" y1="328.324" x2="289.454" y2="370.363"/>
	<line fill="none" stroke="#0066FF" stroke-width="0.07" x1="280.612" y1="328.324" x2="329.908" y2="370.363"/>
	<line fill="none" stroke="#FF00E5" stroke-width="0.07" x1="354.745" y1="281.324" x2="370.364" y2="370.363"/>
	<line fill="none" stroke="#FF00E5" stroke-width="0.07" x1="354.745" y1="281.324" x2="410.818" y2="370.363"/>
	<line fill="none" stroke="#FF00E5" stroke-width="0.07" x1="354.745" y1="281.324" x2="451.273" y2="370.363"/>
	<line fill="none" stroke="#FFE500" stroke-width="0.07" x1="91.995" y1="349.46" x2="46.727" y2="410.818"/>
	<line fill="none" stroke="#FFE500" stroke-width="0.07" x1="91.995" y1="349.46" x2="87.182" y2="410.818"/>
	<line fill="none" stroke="#FFE500" stroke-width="0.07" x1="91.995" y1="349.46" x2="127.636" y2="410.818"/>
	<line fill="none" stroke="#CBFF00" stroke-width="0.07" x1="234.887" y1="345.721" x2="168.091" y2="410.818"/>
	<line fill="none" stroke="#CBFF00" stroke-width="0.07" x1="234.887" y1="345.721" x2="208.545" y2="410.818"/>
	<line fill="none" stroke="#CBFF00" stroke-width="0.07" x1="234.887" y1="345.721" x2="249" y2="410.818"/>
	<line fill="none" stroke="#0066FF" stroke-width="0.07" x1="280.612" y1="328.324" x2="289.454" y2="410.818"/>
	<line fill="none" stroke="#0066FF" stroke-width="0.07" x1="280.612" y1="328.324" x2="329.908" y2="410.818"/>
	<line fill="none" stroke="#0066FF" stroke-width="0.07" x1="280.612" y1="328.324" x2="370.364" y2="410.818"/>
	<line fill="none" stroke="#FF00E5" stroke-width="0.07" x1="354.745" y1="281.324" x2="410.818" y2="410.818"/>
	<line fill="none" stroke="#FF00E5" stroke-width="0.07" x1="354.745" y1="281.324" x2="451.273" y2="410.818"/>
	<line fill="none" stroke="#FFE500" stroke-width="0.07" x1="91.995" y1="349.46" x2="46.727" y2="451.272"/>
	<line fill="none" stroke="#FFE500" stroke-width="0.07" x1="91.995" y1="349.46" x2="87.182" y2="451.272"/>
	<line fill="none" stroke="#FFE500" stroke-width="0.07" x1="91.995" y1="349.46" x2="127.636" y2="451.272"/>
	<line fill="none" stroke="#CBFF00" stroke-width="0.07" x1="234.887" y1="345.721" x2="168.091" y2="451.272"/>
	<line fill="none" stroke="#CBFF00" stroke-width="0.07" x1="234.887" y1="345.721" x2="208.545" y2="451.272"/>
	<line fill="none" stroke="#CBFF00" stroke-width="0.07" x1="234.887" y1="345.721" x2="249" y2="451.272"/>
	<line fill="none" stroke="#CBFF00" stroke-width="0.07" x1="234.887" y1="345.721" x2="289.454" y2="451.272"/>
	<line fill="none" stroke="#0066FF" stroke-width="0.07" x1="280.612" y1="328.324" x2="329.908" y2="451.272"/>
	<line fill="none" stroke="#0066FF" stroke-width="0.07" x1="280.612" y1="328.324" x2="370.364" y2="451.272"/>
	<line fill="none" stroke="#0066FF" stroke-width="0.07" x1="280.612" y1="328.324" x2="410.818" y2="451.272"/>
	<line fill="none" stroke="#FF00E5" stroke-width="0.07" x1="354.745" y1="281.324" x2="410.818" y2="451.272"/>
	<line fill="none" stroke="#FF00E5" stroke-width="0.07" x1="354.745" y1="281.324" x2="451.273" y2="451.272"/>
	<rect x="124" y="124" display="none" fill="#FFFFFF" stroke="#000000" stroke-width="0.1" width="250" height="250"/>
</svg>
